<?xml version="1.0" standalone="no"?>
<!DOCTYPE svg PUBLIC "-//W3C//DTD SVG 20010904//EN"
 "http://www.w3.org/TR/2001/REC-SVG-20010904/DTD/svg10.dtd">
<svg version="1.0" xmlns="http://www.w3.org/2000/svg"
 width="100.000000pt" height="100.000000pt" viewBox="0 0 100.000000 100.000000"
 preserveAspectRatio="xMidYMid meet">

<g transform="translate(0.000000,100.000000) scale(0.100000,-0.100000)"
fill="#2083fe" stroke="none">
<path d="M422 973 c-59 -29 -77 -66 -80 -170 -4 -83 -2 -94 15 -100 10 -3 46
-24 81 -46 l62 -39 63 39 c34 22 70 42 80 46 14 5 17 19 17 89 0 98 -23 149
-80 179 -43 23 -114 24 -158 2z m128 -153 c26 -26 25 -68 -2 -97 -27 -29 -65
-29 -95 -1 -46 43 -16 118 47 118 17 0 39 -9 50 -20z"/>
<path d="M74 631 c-86 -53 -87 -202 0 -264 27 -19 46 -22 149 -25 l117 -4 0
-105 c0 -118 13 -160 61 -194 44 -31 86 -40 138 -28 122 27 140 140 51 317
-67 133 -191 247 -328 301 -67 27 -146 27 -188 2z"/>
<path d="M754 630 c-56 -20 -80 -31 -137 -67 l-37 -23 41 -52 c22 -29 52 -73
65 -100 l24 -48 81 0 c136 0 191 43 197 155 3 70 -9 100 -57 132 -42 28 -104
29 -177 3z"/>
</g>
</svg>
