<?xml version="1.0" standalone="no"?>
<!DOCTYPE svg PUBLIC "-//W3C//DTD SVG 20010904//EN"
 "http://www.w3.org/TR/2001/REC-SVG-20010904/DTD/svg10.dtd">
<svg version="1.0" xmlns="http://www.w3.org/2000/svg"
 width="18560.000000pt" height="5336.000000pt" viewBox="0 0 18560.000000 5336.000000"
 preserveAspectRatio="xMidYMid meet">

<g transform="translate(0.000000,5336.000000) scale(0.100000,-0.100000)"
fill="#2083fe" stroke="none">
<path d="M19395 47260 c-38 -4 -124 -14 -190 -23 -66 -9 -208 -23 -315 -32
-349 -29 -455 -53 -925 -209 -1011 -337 -1685 -723 -2431 -1392 -675 -607
-1138 -1223 -1597 -2126 -182 -359 -303 -647 -411 -978 -101 -309 -162 -565
-230 -961 -20 -113 -42 -237 -50 -275 -8 -38 -17 -100 -20 -139 -24 -301 -56
-4955 -38 -5430 12 -296 19 -323 107 -410 70 -71 145 -112 385 -211 325 -135
1117 -541 1680 -862 529 -302 1326 -786 1835 -1115 588 -380 833 -552 1307
-915 172 -131 394 -299 493 -372 197 -146 293 -222 400 -315 235 -206 469
-355 558 -355 58 0 140 33 230 94 86 57 137 99 384 306 81 69 204 167 273 217
69 51 379 282 690 514 837 624 1024 751 1830 1244 1031 630 1998 1161 2585
1419 534 236 690 329 752 451 l26 50 9 400 c13 547 4 4462 -11 4665 -15 213
-38 415 -61 540 -11 58 -24 165 -30 239 -12 163 -64 422 -164 826 -150 602
-244 861 -481 1335 -368 735 -910 1493 -1398 1953 -414 389 -717 640 -994 821
-546 357 -1135 629 -1816 840 -356 111 -602 158 -992 192 -209 18 -1260 29
-1390 14z m849 -6761 c263 -22 646 -137 926 -280 367 -186 652 -445 895 -809
350 -525 511 -1093 492 -1735 -15 -499 -107 -836 -332 -1222 -272 -463 -548
-733 -1047 -1022 -200 -116 -358 -176 -701 -262 -505 -127 -900 -99 -1402 98
-541 212 -954 544 -1284 1033 -192 284 -314 561 -370 835 -70 349 -102 897
-65 1144 76 518 368 1076 782 1495 141 143 236 221 402 330 153 101 226 141
355 193 183 75 543 183 671 202 76 11 536 11 678 0z"/>
<path d="M105625 37209 c-22 -5 -81 -13 -131 -19 -138 -14 -397 -106 -623
-220 -223 -112 -548 -411 -706 -650 -127 -193 -257 -454 -295 -595 -11 -38
-30 -135 -44 -215 -95 -560 -47 -1010 149 -1399 105 -209 231 -379 424 -571
288 -287 577 -476 881 -578 259 -86 403 -108 665 -99 177 6 230 17 461 91 515
166 861 400 1138 765 145 190 238 359 314 568 87 235 101 330 107 713 7 470
-26 646 -180 955 -127 257 -272 461 -464 653 -304 304 -692 524 -1036 588
-104 19 -592 29 -660 13z"/>
<path d="M5925 33240 c-83 -20 -167 -29 -410 -45 -807 -52 -1309 -194 -2090
-594 -324 -166 -607 -334 -800 -474 -249 -182 -606 -494 -774 -677 -696 -762
-1163 -1572 -1568 -2720 -247 -702 -297 -1121 -273 -2295 16 -815 29 -940 140
-1390 38 -154 89 -363 114 -466 126 -518 305 -935 659 -1534 520 -882 1123
-1557 1933 -2166 456 -343 874 -567 1584 -851 428 -171 745 -263 1145 -332
494 -85 965 -95 4270 -96 2336 -1 3137 -8 3206 -29 44 -13 86 -57 99 -102 6
-18 18 -86 27 -149 16 -105 18 -226 18 -1395 0 -704 -4 -2117 -9 -3140 -10
-2226 -4 -2468 64 -2945 55 -379 219 -949 445 -1550 226 -600 480 -1078 788
-1483 206 -271 602 -732 797 -927 193 -193 655 -589 915 -783 520 -389 1142
-702 1780 -898 94 -28 193 -63 220 -77 l50 -26 1770 -1 c974 -1 1833 1 1910 5
l140 8 380 129 c610 208 848 315 1237 559 366 228 629 433 874 678 521 523
853 1100 1175 2044 127 374 197 639 240 916 16 105 41 256 54 336 41 237 50
426 50 1055 0 634 -9 830 -50 1085 -14 85 -39 274 -55 420 -66 569 -184 1194
-301 1590 -210 709 -548 1742 -729 2225 -659 1765 -1648 3745 -2597 5198 -296
452 -883 1284 -1202 1702 -390 511 -1208 1448 -1817 2080 -477 494 -804 808
-1229 1181 -1301 1138 -1960 1648 -3200 2475 -2076 1383 -3342 2057 -5100
2714 -1168 437 -2055 643 -3140 730 -233 19 -685 28 -740 15z"/>
<path d="M33605 33060 c-11 -5 -85 -9 -165 -9 -516 -3 -1798 -268 -2765 -572
-88 -28 -182 -58 -210 -66 -194 -59 -752 -270 -1163 -439 -2097 -864 -3533
-1634 -5067 -2719 -342 -241 -730 -545 -1101 -863 -139 -119 -166 -151 -166
-197 0 -100 58 -187 308 -462 341 -375 1017 -1220 1423 -1778 494 -680 1330
-1991 1861 -2920 78 -137 195 -337 259 -445 163 -272 234 -405 472 -880 209
-418 367 -745 507 -1050 372 -811 410 -886 483 -961 42 -42 83 -54 234 -69
175 -18 1283 -29 2855 -29 1465 0 1831 5 2060 28 58 6 286 17 507 26 l401 16
239 70 c629 185 1070 351 1501 563 607 300 1085 629 1607 1106 503 459 899
958 1292 1629 504 857 611 1145 857 2288 l87 402 -6 643 c-14 1538 -34 1703
-326 2726 -195 683 -266 856 -554 1347 -331 564 -725 1027 -1190 1398 -890
709 -1970 1097 -3335 1196 -398 29 -861 40 -905 21z"/>
<path d="M68175 32341 c-22 -4 -46 -10 -53 -15 -8 -5 -100 -12 -205 -17 -106
-5 -230 -15 -277 -24 -47 -8 -200 -35 -340 -60 -255 -44 -424 -83 -575 -132
-325 -104 -920 -362 -1240 -535 -545 -296 -1110 -784 -1484 -1282 -346 -461
-614 -941 -846 -1516 -190 -473 -254 -726 -340 -1355 -25 -181 -53 -359 -61
-395 -26 -113 -36 -420 -31 -915 7 -579 23 -773 92 -1105 19 -91 57 -280 85
-420 111 -562 185 -807 372 -1220 271 -599 675 -1202 1088 -1623 224 -230 587
-544 785 -680 666 -458 1289 -723 2070 -878 405 -80 451 -87 670 -100 286 -16
1106 -17 1235 -1 359 44 1064 192 1400 293 481 145 1069 451 1535 800 358 268
618 519 952 918 373 446 533 692 686 1056 30 72 98 225 150 341 104 228 157
372 157 425 0 43 -50 130 -89 158 -77 55 -113 63 -330 72 -268 10 -2852 10
-3083 0 -174 -8 -179 -9 -250 -43 -94 -45 -148 -94 -269 -244 -148 -184 -280
-290 -499 -399 -191 -96 -455 -174 -700 -206 -135 -17 -466 -15 -630 6 -512
64 -992 336 -1316 746 -186 234 -374 610 -374 745 0 98 71 197 148 209 20 3
48 8 62 11 14 3 1616 9 3560 14 3817 9 3933 11 4047 63 28 12 86 124 102 198
15 66 29 329 42 780 27 946 -27 1351 -322 2386 -127 447 -203 649 -346 923
-260 498 -574 929 -954 1309 -681 681 -1457 1146 -2359 1414 -622 185 -1117
261 -1950 297 -244 11 -256 11 -315 1z m745 -3236 c523 -86 957 -313 1263
-662 151 -172 228 -295 316 -506 77 -187 104 -283 105 -382 1 -102 -8 -127
-73 -195 l-38 -40 -1439 0 c-1478 1 -2270 11 -2384 30 -120 21 -140 39 -158
148 -12 69 -2 121 54 261 188 475 541 902 939 1136 217 128 398 178 770 214
61 6 124 13 140 15 66 9 415 -4 505 -19z"/>
<path d="M164625 32340 c-22 -4 -64 -13 -94 -19 -29 -6 -93 -11 -141 -11 -119
0 -270 -16 -420 -45 -69 -14 -197 -36 -285 -49 -443 -68 -1079 -295 -1634
-582 -172 -89 -304 -171 -459 -286 -117 -86 -502 -401 -642 -524 -607 -534
-1077 -1279 -1425 -2259 -117 -328 -156 -487 -244 -985 -185 -1047 -154 -2109
95 -3205 127 -556 401 -1190 763 -1759 379 -597 870 -1138 1367 -1508 430
-319 1190 -686 1764 -852 138 -39 683 -149 849 -171 156 -21 736 -38 1041 -32
370 8 509 26 1125 148 531 105 678 144 945 251 485 196 1019 500 1373 781 453
358 912 870 1260 1402 317 486 545 1005 564 1287 7 107 -3 128 -79 156 -142
53 -443 61 -2151 62 l-1389 0 -96 -46 c-96 -46 -99 -48 -322 -274 -124 -125
-255 -248 -292 -274 -131 -92 -331 -170 -588 -230 -199 -46 -475 -93 -611
-104 -414 -34 -878 126 -1269 438 -98 79 -281 263 -362 365 -126 159 -278 423
-329 571 -34 99 -34 226 0 276 49 72 78 82 240 90 80 4 1669 10 3531 13 1862
4 3495 10 3630 14 240 7 246 8 308 35 35 16 77 46 97 67 76 85 94 161 95 409
0 172 15 393 35 543 17 124 19 235 5 397 -81 981 -85 1018 -115 1145 -13 55
-40 179 -60 275 -118 568 -209 835 -450 1325 -326 662 -757 1245 -1239 1674
-1071 951 -2221 1391 -3866 1480 -291 16 -482 20 -525 11z m682 -3225 c724
-95 1232 -441 1600 -1090 115 -202 167 -354 162 -473 -5 -103 -35 -152 -117
-190 l-57 -27 -1820 0 c-1905 0 -1970 1 -2055 43 -53 26 -60 50 -50 175 26
313 213 673 499 957 250 248 514 429 744 509 132 46 243 64 647 104 99 10 341
5 447 -8z"/>
<path d="M117430 32325 c-30 -7 -87 -14 -125 -14 -128 -2 -534 -78 -815 -152
-625 -166 -951 -362 -1615 -974 -348 -321 -404 -358 -473 -309 -60 42 -70 115
-82 604 -10 422 -17 484 -71 600 -34 75 -45 83 -139 101 -78 15 -2912 25
-3077 11 -137 -12 -185 -30 -227 -85 -50 -66 -56 -93 -66 -339 -6 -144 -10
-2378 -10 -5820 l0 -5587 54 -59 c63 -67 88 -77 228 -93 53 -6 545 -12 1148
-16 1037 -5 1546 2 1809 28 113 11 291 52 302 71 17 26 39 185 44 318 9 201
23 1535 25 2235 0 319 5 1422 10 2450 l8 1870 32 145 c125 581 275 902 559
1194 300 308 662 481 1206 577 114 20 163 23 405 23 215 1 300 -3 390 -17 243
-38 420 -92 602 -182 441 -221 729 -534 914 -994 41 -101 118 -349 138 -447
55 -260 58 -488 71 -4459 8 -2252 17 -2610 71 -2717 18 -34 115 -67 239 -79
142 -15 2838 -24 2963 -10 124 13 147 22 240 97 l73 58 -4 3741 c-3 2057 -7
3760 -10 3785 -3 25 -8 88 -11 140 -14 253 -172 971 -303 1375 -65 201 -160
412 -294 652 -426 765 -870 1255 -1474 1631 -436 270 -987 480 -1491 566 -408
70 -1103 116 -1244 81z"/>
<path d="M128765 32334 c-298 -33 -963 -141 -1130 -184 -611 -158 -1129 -378
-1529 -649 -271 -184 -678 -545 -885 -786 -167 -194 -317 -425 -447 -690 -111
-227 -255 -680 -299 -945 -43 -255 -22 -793 45 -1177 38 -214 131 -479 246
-702 125 -241 250 -408 455 -606 312 -303 598 -510 937 -679 410 -206 894
-350 2027 -606 405 -91 974 -230 1170 -284 338 -95 755 -232 944 -311 299
-124 503 -281 584 -447 47 -98 61 -164 60 -283 -3 -282 -121 -508 -372 -710
-250 -202 -569 -309 -966 -322 -518 -17 -929 118 -1182 390 -62 66 -88 108
-254 401 -46 82 -98 164 -114 182 -37 39 -105 61 -236 74 -286 29 -2514 37
-2894 10 -258 -18 -410 -55 -435 -108 -21 -44 -25 -315 -6 -449 82 -592 384
-1230 837 -1775 353 -423 796 -767 1317 -1019 318 -154 777 -327 1112 -418
101 -28 763 -147 886 -160 55 -6 319 -16 587 -23 820 -19 1175 8 1753 137 877
196 1658 580 2266 1114 607 533 997 1201 1102 1891 23 148 67 480 76 575 14
138 -15 502 -55 698 -69 330 -244 751 -432 1037 -348 527 -845 915 -1523 1188
-540 217 -1622 566 -1990 641 -53 11 -181 40 -285 65 -105 25 -274 59 -376 75
-614 99 -1106 249 -1393 424 -168 102 -306 245 -384 397 -55 107 -65 163 -60
355 l3 162 44 89 c112 227 386 402 763 486 94 21 127 23 363 23 348 -1 794
-41 917 -84 152 -52 329 -169 438 -289 73 -79 129 -190 189 -372 68 -207 119
-271 240 -307 78 -23 391 -29 1516 -30 929 0 1277 6 1518 27 161 14 207 22
319 56 l86 27 12 101 c32 258 -50 710 -197 1086 -171 437 -456 867 -828 1249
-561 577 -1197 946 -2045 1186 -631 179 -1273 261 -2105 270 -192 1 -368 1
-390 -1z"/>
<path d="M83070 32298 c-30 -10 -122 -32 -205 -48 -254 -51 -594 -170 -856
-301 -425 -212 -934 -684 -1411 -1309 -128 -167 -135 -173 -208 -178 -127 -9
-126 -11 -135 883 -3 303 -8 575 -11 605 -3 30 -15 72 -25 92 -24 47 -117 122
-173 139 -32 10 -370 14 -1599 16 l-1557 4 -78 -40 c-116 -61 -128 -75 -137
-163 -13 -124 -20 -1573 -23 -4693 -1 -1644 -5 -3858 -8 -4920 l-7 -1930 44
-74 c50 -83 106 -132 183 -158 47 -16 153 -18 1451 -19 770 -1 1449 2 1508 6
196 16 362 72 394 133 27 52 35 654 53 3941 14 2381 17 2455 130 2850 50 177
87 273 156 406 147 282 358 497 654 668 183 105 355 174 665 268 l180 54 520
10 c778 15 830 21 921 104 l46 41 9 115 c10 149 10 2554 0 2945 -8 270 -11
306 -31 365 -31 91 -80 181 -104 190 -12 4 -82 9 -156 12 -115 4 -143 2 -190
-14z"/>
<path d="M157649 32305 c-11 -10 -99 -32 -307 -75 -277 -58 -483 -131 -711
-251 -506 -268 -922 -644 -1424 -1289 -79 -102 -158 -195 -177 -207 -33 -23
-120 -32 -147 -15 -33 21 -36 68 -44 592 -10 698 -23 829 -97 1017 -35 88 -38
92 -72 97 -19 3 -183 10 -365 16 -437 15 -2763 7 -2855 -9 -89 -16 -138 -43
-186 -104 l-42 -52 2 -5750 c1 -5499 2 -5753 19 -5810 25 -85 75 -190 102
-215 20 -19 41 -23 137 -30 157 -12 607 -19 1613 -26 1109 -8 1384 4 1595 69
l75 23 17 74 c35 146 41 521 59 3840 10 1921 18 2378 44 2557 37 245 134 562
234 761 184 365 483 634 905 812 200 84 507 176 671 200 47 7 304 15 620 20
336 6 557 13 585 20 103 26 199 103 219 177 22 82 26 313 26 1638 0 1610 0
1617 -90 1800 -57 118 -59 119 -243 123 -86 2 -160 1 -163 -3z"/>
<path d="M49675 32201 c-312 -6 -321 -7 -357 -29 -49 -30 -82 -71 -103 -125
-16 -41 -16 -48 0 -113 10 -38 55 -169 101 -290 45 -122 137 -383 204 -580 67
-198 169 -492 227 -654 58 -162 250 -727 428 -1255 177 -528 366 -1084 419
-1235 53 -151 126 -369 162 -485 130 -417 248 -776 366 -1110 192 -546 343
-983 603 -1740 291 -848 409 -1188 585 -1680 73 -203 206 -586 296 -850 475
-1390 499 -1455 596 -1651 61 -121 85 -150 136 -163 53 -14 293 -29 607 -38
413 -12 3508 -8 3641 4 91 9 121 16 173 42 148 75 217 191 291 491 12 47 73
238 136 425 64 187 207 612 319 945 112 333 286 835 388 1115 304 837 470
1319 947 2740 467 1394 607 1802 960 2800 374 1056 794 2303 915 2715 37 124
82 266 101 315 88 227 87 218 44 292 -48 84 -73 92 -303 103 -381 18 -1554 23
-2417 10 l-854 -12 -64 -46 c-112 -79 -151 -160 -227 -463 -25 -100 -72 -270
-105 -378 -33 -108 -98 -338 -145 -511 -111 -406 -184 -648 -300 -995 -167
-497 -324 -1029 -611 -2060 -302 -1085 -378 -1341 -582 -1965 -130 -394 -212
-670 -347 -1155 -105 -377 -182 -613 -238 -725 -47 -94 -66 -107 -141 -90 -89
20 -127 79 -179 280 -20 74 -77 272 -127 440 -50 168 -125 422 -166 565 -84
288 -222 744 -291 960 -93 293 -242 798 -469 1593 -354 1244 -639 2203 -814
2737 -126 385 -175 547 -305 1000 -180 631 -206 698 -296 760 -65 44 -132 55
-408 65 -249 10 -2252 10 -2796 1z"/>
<path d="M84171 32168 l-93 -41 7 -86 c3 -47 15 -123 25 -169 39 -168 163
-503 317 -862 101 -233 169 -411 293 -759 132 -373 234 -639 485 -1266 469
-1168 1736 -4475 1979 -5162 20 -57 52 -149 72 -205 20 -57 83 -220 139 -363
57 -143 192 -496 300 -785 209 -556 277 -732 425 -1085 209 -501 305 -780 316
-920 7 -82 -10 -138 -99 -326 -116 -244 -367 -849 -532 -1284 -112 -296 -155
-400 -400 -975 -170 -398 -632 -1497 -997 -2370 -50 -118 -124 -300 -165 -405
-42 -104 -91 -225 -111 -269 l-36 -79 17 -66 c23 -86 41 -110 110 -145 l57
-28 567 -10 c666 -10 2560 -3 2682 11 226 26 318 136 486 581 43 113 132 331
197 485 183 427 249 590 513 1250 278 699 368 911 652 1550 224 502 304 690
719 1685 393 945 466 1122 736 1790 766 1897 947 2333 1240 2990 298 665 550
1265 1015 2410 205 504 281 687 373 895 103 232 346 811 640 1525 153 371 331
799 395 950 64 151 186 451 272 665 85 215 183 453 218 530 34 77 65 152 69
166 13 59 -43 147 -108 169 -66 21 -219 31 -666 41 -514 12 -2492 4 -2647 -11
-111 -10 -188 -42 -251 -103 -70 -68 -52 -22 -423 -1072 -271 -764 -430 -1208
-606 -1690 -995 -2722 -1066 -2922 -1307 -3650 -51 -154 -115 -334 -141 -400
-62 -156 -197 -425 -234 -464 -49 -52 -114 -39 -183 37 -42 46 -42 47 -155
407 -82 263 -208 640 -622 1865 -93 278 -283 861 -421 1295 -265 834 -456
1410 -663 1996 -69 196 -202 594 -295 885 -206 641 -240 732 -295 792 -53 56
-96 78 -188 92 -83 13 -1536 28 -2819 28 l-765 1 -94 -41z"/>
<path d="M136799 32158 c-152 -78 -142 -47 -150 -473 -11 -530 -10 -5859 1
-6670 10 -776 14 -830 81 -1175 149 -771 496 -1529 1011 -2212 193 -257 312
-385 503 -544 373 -311 638 -480 1009 -644 330 -146 558 -216 1027 -315 l216
-45 612 0 613 0 221 46 c529 108 825 205 1167 380 364 186 601 367 1015 775
224 220 271 259 315 259 31 0 75 -28 92 -59 24 -41 28 -89 38 -501 15 -583 33
-674 140 -727 97 -48 392 -57 1830 -58 1118 0 1222 3 1385 45 41 10 107 33
148 50 l75 31 9 97 c13 154 9 11047 -5 11347 -14 327 -28 368 -136 400 -81 25
-491 33 -1891 41 l-1280 6 -65 -30 c-166 -77 -188 -114 -200 -343 -5 -89 -11
-1251 -15 -2583 -7 -3309 -12 -3907 -31 -4076 -51 -459 -199 -836 -444 -1135
-78 -94 -258 -268 -350 -337 -298 -224 -622 -355 -950 -387 -366 -36 -665 -38
-842 -7 -163 29 -454 128 -616 210 -321 162 -641 455 -801 734 -68 119 -111
222 -176 424 -63 197 -80 280 -95 468 -16 210 -28 1348 -34 3335 -8 2405 -17
3212 -37 3383 -12 105 -60 240 -98 276 -23 22 -43 30 -97 36 -38 5 -431 12
-874 15 -443 3 -1123 7 -1512 10 l-706 5 -103 -52z"/>
<path d="M104241 32173 c-81 -44 -119 -79 -130 -121 -20 -78 -30 -271 -35
-692 -9 -679 -11 -3849 -6 -6940 4 -2832 11 -3886 25 -4015 7 -65 11 -73 49
-110 55 -53 123 -76 254 -86 59 -4 768 -8 1575 -8 l1468 -1 60 29 c162 81 168
95 181 433 13 336 13 10327 0 10863 -9 369 -10 382 -36 461 -31 97 -74 160
-124 181 -55 23 -587 32 -2018 32 l-1211 1 -52 -27z"/>
<path d="M99588 24240 c-113 -24 -308 -81 -423 -124 -667 -249 -1162 -905
-1249 -1657 -35 -296 -8 -565 85 -844 199 -600 728 -1133 1320 -1329 196 -65
260 -77 465 -83 269 -8 506 29 774 122 222 77 341 145 514 295 598 518 847
1135 756 1870 -42 332 -140 617 -290 840 -202 301 -541 605 -827 741 -301 144
-853 227 -1125 169z"/>
</g>
</svg>
